<svg width="234" height="180" viewBox="0 0 234 180" fill="none" xmlns="http://www.w3.org/2000/svg">
<g filter="url(#filter0_d_2_8)">
<rect x="2" y="28" width="230" height="150" fill="white"/>
</g>
<line x1="2" y1="133.5" x2="232" y2="133.5" stroke="black" stroke-opacity="0.05"/>
<line x1="2" y1="62.5" x2="232" y2="62.5" stroke="black" stroke-opacity="0.05"/>
<path d="M44.3828 50H42.5664V42.9453H40.2402V41.4336H46.709V42.9453H44.3828V50ZM50.5879 43.3262C51.1934 43.3262 51.7148 43.4434 52.1523 43.6777C52.5898 43.9082 52.9277 44.2441 53.166 44.6855C53.4043 45.127 53.5234 45.666 53.5234 46.3027V47.1699H49.2988C49.3184 47.6738 49.4688 48.0703 49.75 48.3594C50.0352 48.6445 50.4297 48.7871 50.9336 48.7871C51.3516 48.7871 51.7344 48.7441 52.082 48.6582C52.4297 48.5723 52.7871 48.4434 53.1543 48.2715V49.6543C52.8301 49.8145 52.4902 49.9316 52.1348 50.0059C51.7832 50.0801 51.3555 50.1172 50.8516 50.1172C50.1953 50.1172 49.6133 49.9961 49.1055 49.7539C48.6016 49.5117 48.2051 49.1426 47.916 48.6465C47.6309 48.1504 47.4883 47.5254 47.4883 46.7715C47.4883 46.0059 47.6172 45.3691 47.875 44.8613C48.1367 44.3496 48.5 43.9668 48.9648 43.7129C49.4297 43.4551 49.9707 43.3262 50.5879 43.3262ZM50.5996 44.5977C50.252 44.5977 49.9629 44.709 49.7324 44.9316C49.5059 45.1543 49.375 45.5039 49.3398 45.9805H51.8477C51.8438 45.7148 51.7949 45.4785 51.7012 45.2715C51.6113 45.0645 51.4746 44.9004 51.291 44.7793C51.1113 44.6582 50.8809 44.5977 50.5996 44.5977ZM56.3184 46.6543L54.209 43.4492H56.2363L57.5078 45.5352L58.791 43.4492H60.8184L58.6855 46.6543L60.918 50H58.8848L57.5078 47.7559L56.125 50H54.0977L56.3184 46.6543ZM64.6738 48.6934C64.8691 48.6934 65.0586 48.6738 65.2422 48.6348C65.4297 48.5957 65.6152 48.5469 65.7988 48.4883V49.8184C65.6074 49.9043 65.3691 49.9746 65.084 50.0293C64.8027 50.0879 64.4941 50.1172 64.1582 50.1172C63.7676 50.1172 63.416 50.0547 63.1035 49.9297C62.7949 49.8008 62.5508 49.5801 62.3711 49.2676C62.1953 48.9512 62.1074 48.5117 62.1074 47.9492V44.791H61.252V44.0352L62.2363 43.4375L62.752 42.0547H63.8945V43.4492H65.7285V44.791H63.8945V47.9492C63.8945 48.1992 63.9648 48.3867 64.1055 48.5117C64.25 48.6328 64.4395 48.6934 64.6738 48.6934ZM74.0137 50L71.9512 43.2793H71.8984C71.9062 43.4395 71.918 43.6816 71.9336 44.0059C71.9531 44.3262 71.9707 44.668 71.9863 45.0312C72.002 45.3945 72.0098 45.7227 72.0098 46.0156V50H70.3867V41.4336H72.8594L74.8867 47.9844H74.9219L77.0723 41.4336H79.5449V50H77.8516V45.9453C77.8516 45.6758 77.8555 45.3652 77.8633 45.0137C77.875 44.6621 77.8887 44.3281 77.9043 44.0117C77.9199 43.6914 77.9316 43.4512 77.9395 43.291H77.8867L75.6777 50H74.0137ZM84.2676 43.3262C84.873 43.3262 85.3945 43.4434 85.832 43.6777C86.2695 43.9082 86.6074 44.2441 86.8457 44.6855C87.084 45.127 87.2031 45.666 87.2031 46.3027V47.1699H82.9785C82.998 47.6738 83.1484 48.0703 83.4297 48.3594C83.7148 48.6445 84.1094 48.7871 84.6133 48.7871C85.0312 48.7871 85.4141 48.7441 85.7617 48.6582C86.1094 48.5723 86.4668 48.4434 86.834 48.2715V49.6543C86.5098 49.8145 86.1699 49.9316 85.8145 50.0059C85.4629 50.0801 85.0352 50.1172 84.5312 50.1172C83.875 50.1172 83.293 49.9961 82.7852 49.7539C82.2812 49.5117 81.8848 49.1426 81.5957 48.6465C81.3105 48.1504 81.168 47.5254 81.168 46.7715C81.168 46.0059 81.2969 45.3691 81.5547 44.8613C81.8164 44.3496 82.1797 43.9668 82.6445 43.7129C83.1094 43.4551 83.6504 43.3262 84.2676 43.3262ZM84.2793 44.5977C83.9316 44.5977 83.6426 44.709 83.4121 44.9316C83.1855 45.1543 83.0547 45.5039 83.0195 45.9805H85.5273C85.5234 45.7148 85.4746 45.4785 85.3809 45.2715C85.291 45.0645 85.1543 44.9004 84.9707 44.7793C84.791 44.6582 84.5605 44.5977 84.2793 44.5977ZM93.2266 48.0547C93.2266 48.5 93.1211 48.877 92.9102 49.1855C92.7031 49.4902 92.3926 49.7227 91.9785 49.8828C91.5645 50.0391 91.0488 50.1172 90.4316 50.1172C89.9746 50.1172 89.582 50.0879 89.2539 50.0293C88.9297 49.9707 88.6016 49.873 88.2695 49.7363V48.2598C88.625 48.4199 89.0059 48.5527 89.4121 48.6582C89.8223 48.7598 90.1816 48.8105 90.4902 48.8105C90.8379 48.8105 91.0859 48.7598 91.2344 48.6582C91.3867 48.5527 91.4629 48.416 91.4629 48.248C91.4629 48.1387 91.4316 48.041 91.3691 47.9551C91.3105 47.8652 91.1816 47.7656 90.9824 47.6562C90.7832 47.543 90.4707 47.3965 90.0449 47.2168C89.6348 47.0449 89.2969 46.8711 89.0312 46.6953C88.7695 46.5195 88.5742 46.3125 88.4453 46.0742C88.3203 45.832 88.2578 45.5254 88.2578 45.1543C88.2578 44.5488 88.4922 44.0938 88.9609 43.7891C89.4336 43.4805 90.0645 43.3262 90.8535 43.3262C91.2598 43.3262 91.6465 43.3672 92.0137 43.4492C92.3848 43.5312 92.7656 43.6621 93.1562 43.8418L92.6172 45.1309C92.293 44.9902 91.9863 44.875 91.6973 44.7852C91.4121 44.6953 91.1211 44.6504 90.8242 44.6504C90.5625 44.6504 90.3652 44.6855 90.2324 44.7559C90.0996 44.8262 90.0332 44.9336 90.0332 45.0781C90.0332 45.1836 90.0664 45.2773 90.1328 45.3594C90.2031 45.4414 90.3359 45.5332 90.5312 45.6348C90.7305 45.7324 91.0215 45.8594 91.4043 46.0156C91.7754 46.168 92.0977 46.3281 92.3711 46.4961C92.6445 46.6602 92.8555 46.8652 93.0039 47.1113C93.1523 47.3535 93.2266 47.668 93.2266 48.0547ZM99.1914 48.0547C99.1914 48.5 99.0859 48.877 98.875 49.1855C98.668 49.4902 98.3574 49.7227 97.9434 49.8828C97.5293 50.0391 97.0137 50.1172 96.3965 50.1172C95.9395 50.1172 95.5469 50.0879 95.2188 50.0293C94.8945 49.9707 94.5664 49.873 94.2344 49.7363V48.2598C94.5898 48.4199 94.9707 48.5527 95.377 48.6582C95.7871 48.7598 96.1465 48.8105 96.4551 48.8105C96.8027 48.8105 97.0508 48.7598 97.1992 48.6582C97.3516 48.5527 97.4277 48.416 97.4277 48.248C97.4277 48.1387 97.3965 48.041 97.334 47.9551C97.2754 47.8652 97.1465 47.7656 96.9473 47.6562C96.748 47.543 96.4355 47.3965 96.0098 47.2168C95.5996 47.0449 95.2617 46.8711 94.9961 46.6953C94.7344 46.5195 94.5391 46.3125 94.4102 46.0742C94.2852 45.832 94.2227 45.5254 94.2227 45.1543C94.2227 44.5488 94.457 44.0938 94.9258 43.7891C95.3984 43.4805 96.0293 43.3262 96.8184 43.3262C97.2246 43.3262 97.6113 43.3672 97.9785 43.4492C98.3496 43.5312 98.7305 43.6621 99.1211 43.8418L98.582 45.1309C98.2578 44.9902 97.9512 44.875 97.6621 44.7852C97.377 44.6953 97.0859 44.6504 96.7891 44.6504C96.5273 44.6504 96.3301 44.6855 96.1973 44.7559C96.0645 44.8262 95.998 44.9336 95.998 45.0781C95.998 45.1836 96.0312 45.2773 96.0977 45.3594C96.168 45.4414 96.3008 45.5332 96.4961 45.6348C96.6953 45.7324 96.9863 45.8594 97.3691 46.0156C97.7402 46.168 98.0625 46.3281 98.3359 46.4961C98.6094 46.6602 98.8203 46.8652 98.9688 47.1113C99.1172 47.3535 99.1914 47.668 99.1914 48.0547ZM103.27 43.3145C104.148 43.3145 104.822 43.5059 105.291 43.8887C105.76 44.2715 105.994 44.8535 105.994 45.6348V50H104.746L104.4 49.1094H104.354C104.166 49.3438 103.975 49.5352 103.779 49.6836C103.584 49.832 103.359 49.9414 103.105 50.0117C102.852 50.082 102.543 50.1172 102.18 50.1172C101.793 50.1172 101.445 50.043 101.137 49.8945C100.832 49.7461 100.592 49.5195 100.416 49.2148C100.24 48.9062 100.152 48.5156 100.152 48.043C100.152 47.3477 100.396 46.8359 100.885 46.5078C101.373 46.1758 102.105 45.9922 103.082 45.957L104.219 45.9219V45.6348C104.219 45.291 104.129 45.0391 103.949 44.8789C103.77 44.7188 103.52 44.6387 103.199 44.6387C102.883 44.6387 102.572 44.6836 102.268 44.7734C101.963 44.8633 101.658 44.9766 101.354 45.1133L100.762 43.9062C101.109 43.7227 101.498 43.5781 101.928 43.4727C102.361 43.3672 102.809 43.3145 103.27 43.3145ZM104.219 46.9648L103.527 46.9883C102.949 47.0039 102.547 47.1074 102.32 47.2988C102.098 47.4902 101.986 47.7422 101.986 48.0547C101.986 48.3281 102.066 48.5234 102.227 48.6406C102.387 48.7539 102.596 48.8105 102.854 48.8105C103.236 48.8105 103.559 48.6973 103.82 48.4707C104.086 48.2441 104.219 47.9219 104.219 47.5039V46.9648ZM109.756 52.8828C108.842 52.8828 108.143 52.7227 107.658 52.4023C107.178 52.0859 106.938 51.6406 106.938 51.0664C106.938 50.6719 107.061 50.3418 107.307 50.0762C107.553 49.8105 107.914 49.6211 108.391 49.5078C108.207 49.4297 108.047 49.3027 107.91 49.127C107.773 48.9473 107.705 48.7578 107.705 48.5586C107.705 48.3086 107.777 48.1016 107.922 47.9375C108.066 47.7695 108.275 47.6055 108.549 47.4453C108.205 47.2969 107.932 47.0586 107.729 46.7305C107.529 46.4023 107.43 46.0156 107.43 45.5703C107.43 45.0938 107.533 44.6895 107.74 44.3574C107.951 44.0215 108.256 43.7656 108.654 43.5898C109.057 43.4141 109.545 43.3262 110.119 43.3262C110.24 43.3262 110.381 43.334 110.541 43.3496C110.701 43.3652 110.848 43.3828 110.98 43.4023C111.117 43.4219 111.209 43.4375 111.256 43.4492H113.541V44.3574L112.516 44.6211C112.609 44.7656 112.68 44.9199 112.727 45.084C112.773 45.248 112.797 45.4219 112.797 45.6055C112.797 46.3086 112.551 46.8574 112.059 47.252C111.57 47.6426 110.891 47.8379 110.02 47.8379C109.812 47.8262 109.617 47.8105 109.434 47.791C109.344 47.8613 109.275 47.9355 109.229 48.0137C109.182 48.0918 109.158 48.1738 109.158 48.2598C109.158 48.3457 109.193 48.418 109.264 48.4766C109.338 48.5312 109.447 48.5742 109.592 48.6055C109.74 48.6328 109.924 48.6465 110.143 48.6465H111.256C111.975 48.6465 112.521 48.8008 112.896 49.1094C113.275 49.418 113.465 49.8711 113.465 50.4688C113.465 51.2344 113.145 51.8281 112.504 52.25C111.867 52.6719 110.951 52.8828 109.756 52.8828ZM109.832 51.7168C110.258 51.7168 110.623 51.6758 110.928 51.5938C111.236 51.5156 111.473 51.4023 111.637 51.2539C111.801 51.1094 111.883 50.9355 111.883 50.7324C111.883 50.5684 111.834 50.4375 111.736 50.3398C111.643 50.2461 111.498 50.1797 111.303 50.1406C111.111 50.1016 110.865 50.082 110.564 50.082H109.639C109.42 50.082 109.223 50.1172 109.047 50.1875C108.875 50.2578 108.738 50.3555 108.637 50.4805C108.535 50.6094 108.484 50.7578 108.484 50.9258C108.484 51.1719 108.602 51.3652 108.836 51.5059C109.074 51.6465 109.406 51.7168 109.832 51.7168ZM110.119 46.748C110.455 46.748 110.701 46.6445 110.857 46.4375C111.014 46.2305 111.092 45.9492 111.092 45.5938C111.092 45.1992 111.01 44.9043 110.846 44.709C110.686 44.5098 110.443 44.4102 110.119 44.4102C109.791 44.4102 109.545 44.5098 109.381 44.709C109.217 44.9043 109.135 45.1992 109.135 45.5938C109.135 45.9492 109.215 46.2305 109.375 46.4375C109.539 46.6445 109.787 46.748 110.119 46.748ZM117.326 43.3262C117.932 43.3262 118.453 43.4434 118.891 43.6777C119.328 43.9082 119.666 44.2441 119.904 44.6855C120.143 45.127 120.262 45.666 120.262 46.3027V47.1699H116.037C116.057 47.6738 116.207 48.0703 116.488 48.3594C116.773 48.6445 117.168 48.7871 117.672 48.7871C118.09 48.7871 118.473 48.7441 118.82 48.6582C119.168 48.5723 119.525 48.4434 119.893 48.2715V49.6543C119.568 49.8145 119.229 49.9316 118.873 50.0059C118.521 50.0801 118.094 50.1172 117.59 50.1172C116.934 50.1172 116.352 49.9961 115.844 49.7539C115.34 49.5117 114.943 49.1426 114.654 48.6465C114.369 48.1504 114.227 47.5254 114.227 46.7715C114.227 46.0059 114.355 45.3691 114.613 44.8613C114.875 44.3496 115.238 43.9668 115.703 43.7129C116.168 43.4551 116.709 43.3262 117.326 43.3262ZM117.338 44.5977C116.99 44.5977 116.701 44.709 116.471 44.9316C116.244 45.1543 116.113 45.5039 116.078 45.9805H118.586C118.582 45.7148 118.533 45.4785 118.439 45.2715C118.35 45.0645 118.213 44.9004 118.029 44.7793C117.85 44.6582 117.619 44.5977 117.338 44.5977Z" fill="#414141"/>
<path d="M185.246 158H184.48L181.367 153.203H181.336C181.344 153.331 181.353 153.477 181.363 153.641C181.374 153.802 181.382 153.975 181.387 154.16C181.395 154.342 181.398 154.529 181.398 154.719V158H180.781V152.289H181.543L184.645 157.07H184.672C184.667 156.979 184.66 156.85 184.652 156.684C184.645 156.514 184.637 156.333 184.629 156.141C184.624 155.945 184.621 155.764 184.621 155.598V152.289H185.246V158ZM188.355 153.641C188.72 153.641 189.033 153.721 189.293 153.883C189.553 154.044 189.753 154.271 189.891 154.562C190.029 154.852 190.098 155.19 190.098 155.578V155.98H187.141C187.148 156.483 187.273 156.866 187.516 157.129C187.758 157.392 188.099 157.523 188.539 157.523C188.81 157.523 189.049 157.499 189.258 157.449C189.466 157.4 189.682 157.327 189.906 157.23V157.801C189.69 157.897 189.475 157.967 189.262 158.012C189.051 158.056 188.801 158.078 188.512 158.078C188.1 158.078 187.741 157.995 187.434 157.828C187.129 157.659 186.892 157.411 186.723 157.086C186.553 156.76 186.469 156.362 186.469 155.891C186.469 155.43 186.546 155.031 186.699 154.695C186.855 154.357 187.074 154.096 187.355 153.914C187.639 153.732 187.973 153.641 188.355 153.641ZM188.348 154.172C188.001 154.172 187.725 154.285 187.52 154.512C187.314 154.738 187.191 155.055 187.152 155.461H189.418C189.415 155.206 189.375 154.982 189.297 154.789C189.221 154.594 189.105 154.443 188.949 154.336C188.793 154.227 188.592 154.172 188.348 154.172ZM192.219 155.809L190.738 153.719H191.48L192.609 155.367L193.734 153.719H194.469L192.988 155.809L194.551 158H193.809L192.609 156.254L191.402 158H190.668L192.219 155.809ZM196.77 157.547C196.876 157.547 196.986 157.538 197.098 157.52C197.21 157.501 197.301 157.479 197.371 157.453V157.957C197.296 157.991 197.19 158.02 197.055 158.043C196.922 158.066 196.792 158.078 196.664 158.078C196.438 158.078 196.232 158.039 196.047 157.961C195.862 157.88 195.714 157.745 195.602 157.555C195.492 157.365 195.438 157.102 195.438 156.766V154.227H194.828V153.91L195.441 153.656L195.699 152.727H196.09V153.719H197.344V154.227H196.09V156.746C196.09 157.014 196.151 157.215 196.273 157.348C196.398 157.48 196.564 157.547 196.77 157.547ZM203.637 156.48C203.637 156.819 203.552 157.108 203.383 157.348C203.216 157.585 202.982 157.766 202.68 157.891C202.378 158.016 202.022 158.078 201.613 158.078C201.397 158.078 201.193 158.068 201 158.047C200.807 158.026 200.63 157.996 200.469 157.957C200.307 157.918 200.165 157.87 200.043 157.812V157.176C200.238 157.257 200.477 157.332 200.758 157.402C201.039 157.47 201.333 157.504 201.641 157.504C201.927 157.504 202.169 157.466 202.367 157.391C202.565 157.312 202.715 157.202 202.816 157.059C202.921 156.913 202.973 156.738 202.973 156.535C202.973 156.34 202.93 156.177 202.844 156.047C202.758 155.914 202.615 155.794 202.414 155.688C202.216 155.578 201.945 155.462 201.602 155.34C201.359 155.254 201.146 155.16 200.961 155.059C200.776 154.954 200.621 154.837 200.496 154.707C200.371 154.577 200.276 154.426 200.211 154.254C200.148 154.082 200.117 153.885 200.117 153.664C200.117 153.359 200.194 153.099 200.348 152.883C200.504 152.664 200.719 152.497 200.992 152.383C201.268 152.266 201.585 152.207 201.941 152.207C202.246 152.207 202.527 152.236 202.785 152.293C203.046 152.35 203.284 152.427 203.5 152.523L203.293 153.094C203.087 153.008 202.868 152.936 202.637 152.879C202.408 152.822 202.171 152.793 201.926 152.793C201.681 152.793 201.474 152.829 201.305 152.902C201.138 152.973 201.01 153.073 200.922 153.203C200.833 153.333 200.789 153.488 200.789 153.668C200.789 153.868 200.831 154.035 200.914 154.168C201 154.301 201.135 154.419 201.32 154.523C201.508 154.625 201.755 154.732 202.062 154.844C202.398 154.966 202.684 155.096 202.918 155.234C203.152 155.37 203.331 155.536 203.453 155.734C203.576 155.93 203.637 156.178 203.637 156.48ZM206.09 157.547C206.197 157.547 206.306 157.538 206.418 157.52C206.53 157.501 206.621 157.479 206.691 157.453V157.957C206.616 157.991 206.51 158.02 206.375 158.043C206.242 158.066 206.112 158.078 205.984 158.078C205.758 158.078 205.552 158.039 205.367 157.961C205.182 157.88 205.034 157.745 204.922 157.555C204.812 157.365 204.758 157.102 204.758 156.766V154.227H204.148V153.91L204.762 153.656L205.02 152.727H205.41V153.719H206.664V154.227H205.41V156.746C205.41 157.014 205.471 157.215 205.594 157.348C205.719 157.48 205.884 157.547 206.09 157.547ZM209.207 153.641C209.572 153.641 209.884 153.721 210.145 153.883C210.405 154.044 210.604 154.271 210.742 154.562C210.88 154.852 210.949 155.19 210.949 155.578V155.98H207.992C208 156.483 208.125 156.866 208.367 157.129C208.609 157.392 208.951 157.523 209.391 157.523C209.661 157.523 209.901 157.499 210.109 157.449C210.318 157.4 210.534 157.327 210.758 157.23V157.801C210.542 157.897 210.327 157.967 210.113 158.012C209.902 158.056 209.652 158.078 209.363 158.078C208.952 158.078 208.592 157.995 208.285 157.828C207.98 157.659 207.743 157.411 207.574 157.086C207.405 156.76 207.32 156.362 207.32 155.891C207.32 155.43 207.397 155.031 207.551 154.695C207.707 154.357 207.926 154.096 208.207 153.914C208.491 153.732 208.824 153.641 209.207 153.641ZM209.199 154.172C208.853 154.172 208.577 154.285 208.371 154.512C208.165 154.738 208.043 155.055 208.004 155.461H210.27C210.267 155.206 210.227 154.982 210.148 154.789C210.073 154.594 209.957 154.443 209.801 154.336C209.645 154.227 209.444 154.172 209.199 154.172ZM214.062 153.641C214.596 153.641 215.022 153.824 215.34 154.191C215.658 154.559 215.816 155.111 215.816 155.848C215.816 156.335 215.743 156.743 215.598 157.074C215.452 157.405 215.246 157.655 214.98 157.824C214.717 157.993 214.406 158.078 214.047 158.078C213.82 158.078 213.621 158.048 213.449 157.988C213.277 157.928 213.13 157.848 213.008 157.746C212.885 157.645 212.784 157.534 212.703 157.414H212.656C212.664 157.516 212.673 157.638 212.684 157.781C212.697 157.924 212.703 158.049 212.703 158.156V159.914H212.051V153.719H212.586L212.672 154.352H212.703C212.786 154.221 212.888 154.103 213.008 153.996C213.128 153.887 213.273 153.801 213.445 153.738C213.62 153.673 213.826 153.641 214.062 153.641ZM213.949 154.188C213.652 154.188 213.413 154.245 213.23 154.359C213.051 154.474 212.919 154.646 212.836 154.875C212.753 155.102 212.708 155.387 212.703 155.73V155.855C212.703 156.217 212.742 156.523 212.82 156.773C212.901 157.023 213.033 157.214 213.215 157.344C213.4 157.474 213.647 157.539 213.957 157.539C214.223 157.539 214.444 157.467 214.621 157.324C214.798 157.181 214.93 156.982 215.016 156.727C215.104 156.469 215.148 156.173 215.148 155.84C215.148 155.335 215.049 154.934 214.852 154.637C214.656 154.337 214.355 154.188 213.949 154.188Z" fill="#919191"/>
<path d="M15 38.5H27C27.825 38.5 28.5 39.175 28.5 40V53.5L25.5 50.5H15C14.175 50.5 13.5 49.825 13.5 49V40C13.5 39.175 14.175 38.5 15 38.5ZM15 49H26.1L27 49.9V40H15V49ZM17.25 45.25H18.75V43.75H17.25M20.25 45.25H21.75V43.75H20.25M23.25 45.25H24.75V43.75H23.25" fill="black"/>
<path d="M28.6641 93H27.668V88.9629H23.168V93H22.1719V84.4336H23.168V88.084H27.668V84.4336H28.6641V93ZM31.8457 86.5781V93H30.873V86.5781H31.8457ZM31.3711 84.1758C31.5312 84.1758 31.668 84.2285 31.7812 84.334C31.8984 84.4355 31.957 84.5957 31.957 84.8145C31.957 85.0293 31.8984 85.1895 31.7812 85.2949C31.668 85.4004 31.5312 85.4531 31.3711 85.4531C31.2031 85.4531 31.0625 85.4004 30.9492 85.2949C30.8398 85.1895 30.7852 85.0293 30.7852 84.8145C30.7852 84.5957 30.8398 84.4355 30.9492 84.334C31.0625 84.2285 31.2031 84.1758 31.3711 84.1758Z" fill="black"/>
<path d="M49 4C49 1.79087 50.7909 0 53 0H182C184.209 0 186 1.79086 186 4V26.6925C186 28.7984 184.367 30.5436 182.266 30.6836L117.5 35L52.734 30.6836C50.6328 30.5436 49 28.7984 49 26.6925V4Z" fill="#00B528"/>
<path d="M88.1855 17.6348C88.1855 18.5996 88 19.4062 87.6289 20.0547C87.2617 20.6992 86.7285 21.1855 86.0293 21.5137C85.3301 21.8379 84.4883 22 83.5039 22H81.0781V13.4336H83.7676C84.666 13.4336 85.4453 13.5938 86.1055 13.9141C86.7656 14.2305 87.2773 14.7012 87.6406 15.3262C88.0039 15.9473 88.1855 16.7168 88.1855 17.6348ZM86.2988 17.6816C86.2988 17.0488 86.2051 16.5293 86.0176 16.123C85.834 15.7129 85.5605 15.4102 85.1973 15.2148C84.8379 15.0195 84.3926 14.9219 83.8613 14.9219H82.8945V20.5H83.6738C84.5605 20.5 85.2188 20.2637 85.6484 19.791C86.082 19.3184 86.2988 18.6152 86.2988 17.6816ZM92.5215 15.3262C93.127 15.3262 93.6484 15.4434 94.0859 15.6777C94.5234 15.9082 94.8613 16.2441 95.0996 16.6855C95.3379 17.127 95.457 17.666 95.457 18.3027V19.1699H91.2324C91.252 19.6738 91.4023 20.0703 91.6836 20.3594C91.9688 20.6445 92.3633 20.7871 92.8672 20.7871C93.2852 20.7871 93.668 20.7441 94.0156 20.6582C94.3633 20.5723 94.7207 20.4434 95.0879 20.2715V21.6543C94.7637 21.8145 94.4238 21.9316 94.0684 22.0059C93.7168 22.0801 93.2891 22.1172 92.7852 22.1172C92.1289 22.1172 91.5469 21.9961 91.0391 21.7539C90.5352 21.5117 90.1387 21.1426 89.8496 20.6465C89.5645 20.1504 89.4219 19.5254 89.4219 18.7715C89.4219 18.0059 89.5508 17.3691 89.8086 16.8613C90.0703 16.3496 90.4336 15.9668 90.8984 15.7129C91.3633 15.4551 91.9043 15.3262 92.5215 15.3262ZM92.5332 16.5977C92.1855 16.5977 91.8965 16.709 91.666 16.9316C91.4395 17.1543 91.3086 17.5039 91.2734 17.9805H93.7812C93.7773 17.7148 93.7285 17.4785 93.6348 17.2715C93.5449 17.0645 93.4082 16.9004 93.2246 16.7793C93.0449 16.6582 92.8145 16.5977 92.5332 16.5977ZM100.531 16.791H98.9844V22H97.1973V16.791H96.2129V15.9297L97.1973 15.4492V14.9688C97.1973 14.4102 97.291 13.9766 97.4785 13.668C97.6699 13.3555 97.9375 13.1367 98.2812 13.0117C98.6289 12.8828 99.0391 12.8184 99.5117 12.8184C99.8594 12.8184 100.176 12.8477 100.461 12.9062C100.746 12.9609 100.979 13.0234 101.158 13.0938L100.701 14.4062C100.564 14.3633 100.416 14.3242 100.256 14.2891C100.096 14.2539 99.9121 14.2363 99.7051 14.2363C99.4551 14.2363 99.2715 14.3125 99.1543 14.4648C99.041 14.6133 98.9844 14.8047 98.9844 15.0391V15.4492H100.531V16.791ZM104.246 15.3145C105.125 15.3145 105.799 15.5059 106.268 15.8887C106.736 16.2715 106.971 16.8535 106.971 17.6348V22H105.723L105.377 21.1094H105.33C105.143 21.3438 104.951 21.5352 104.756 21.6836C104.561 21.832 104.336 21.9414 104.082 22.0117C103.828 22.082 103.52 22.1172 103.156 22.1172C102.77 22.1172 102.422 22.043 102.113 21.8945C101.809 21.7461 101.568 21.5195 101.393 21.2148C101.217 20.9062 101.129 20.5156 101.129 20.043C101.129 19.3477 101.373 18.8359 101.861 18.5078C102.35 18.1758 103.082 17.9922 104.059 17.957L105.195 17.9219V17.6348C105.195 17.291 105.105 17.0391 104.926 16.8789C104.746 16.7188 104.496 16.6387 104.176 16.6387C103.859 16.6387 103.549 16.6836 103.244 16.7734C102.939 16.8633 102.635 16.9766 102.33 17.1133L101.738 15.9062C102.086 15.7227 102.475 15.5781 102.904 15.4727C103.338 15.3672 103.785 15.3145 104.246 15.3145ZM105.195 18.9648L104.504 18.9883C103.926 19.0039 103.523 19.1074 103.297 19.2988C103.074 19.4902 102.963 19.7422 102.963 20.0547C102.963 20.3281 103.043 20.5234 103.203 20.6406C103.363 20.7539 103.572 20.8105 103.83 20.8105C104.213 20.8105 104.535 20.6973 104.797 20.4707C105.062 20.2441 105.195 19.9219 105.195 19.5039V18.9648ZM114.828 15.4492V22H113.457L113.217 21.1621H113.123C112.982 21.3848 112.807 21.5664 112.596 21.707C112.385 21.8477 112.152 21.9512 111.898 22.0176C111.645 22.084 111.381 22.1172 111.107 22.1172C110.639 22.1172 110.23 22.0352 109.883 21.8711C109.535 21.7031 109.264 21.4434 109.068 21.0918C108.877 20.7402 108.781 20.2832 108.781 19.7207V15.4492H110.568V19.2754C110.568 19.7441 110.652 20.0977 110.82 20.3359C110.988 20.5742 111.256 20.6934 111.623 20.6934C111.986 20.6934 112.271 20.6113 112.479 20.4473C112.686 20.2793 112.83 20.0352 112.912 19.7148C112.998 19.3906 113.041 18.9961 113.041 18.5312V15.4492H114.828ZM118.49 22H116.703V12.8828H118.49V22ZM123.131 20.6934C123.326 20.6934 123.516 20.6738 123.699 20.6348C123.887 20.5957 124.072 20.5469 124.256 20.4883V21.8184C124.064 21.9043 123.826 21.9746 123.541 22.0293C123.26 22.0879 122.951 22.1172 122.615 22.1172C122.225 22.1172 121.873 22.0547 121.561 21.9297C121.252 21.8008 121.008 21.5801 120.828 21.2676C120.652 20.9512 120.564 20.5117 120.564 19.9492V16.791H119.709V16.0352L120.693 15.4375L121.209 14.0547H122.352V15.4492H124.186V16.791H122.352V19.9492C122.352 20.1992 122.422 20.3867 122.562 20.5117C122.707 20.6328 122.896 20.6934 123.131 20.6934ZM133.9 19.6211C133.9 20.1289 133.777 20.5703 133.531 20.9453C133.285 21.3203 132.926 21.6094 132.453 21.8125C131.984 22.0156 131.414 22.1172 130.742 22.1172C130.445 22.1172 130.154 22.0977 129.869 22.0586C129.588 22.0195 129.316 21.9629 129.055 21.8887C128.797 21.8105 128.551 21.7148 128.316 21.6016V19.9141C128.723 20.0938 129.145 20.2559 129.582 20.4004C130.02 20.5449 130.453 20.6172 130.883 20.6172C131.18 20.6172 131.418 20.5781 131.598 20.5C131.781 20.4219 131.914 20.3145 131.996 20.1777C132.078 20.041 132.119 19.8848 132.119 19.709C132.119 19.4941 132.047 19.3105 131.902 19.1582C131.758 19.0059 131.559 18.8633 131.305 18.7305C131.055 18.5977 130.771 18.4551 130.455 18.3027C130.256 18.209 130.039 18.0957 129.805 17.9629C129.57 17.8262 129.348 17.6602 129.137 17.4648C128.926 17.2695 128.752 17.0332 128.615 16.7559C128.482 16.4746 128.416 16.1387 128.416 15.748C128.416 15.2363 128.533 14.7988 128.768 14.4355C129.002 14.0723 129.336 13.7949 129.77 13.6035C130.207 13.4082 130.723 13.3105 131.316 13.3105C131.762 13.3105 132.186 13.3633 132.588 13.4688C132.994 13.5703 133.418 13.7188 133.859 13.9141L133.273 15.3262C132.879 15.166 132.525 15.043 132.213 14.957C131.9 14.8672 131.582 14.8223 131.258 14.8223C131.031 14.8223 130.838 14.8594 130.678 14.9336C130.518 15.0039 130.396 15.1055 130.314 15.2383C130.232 15.3672 130.191 15.5176 130.191 15.6895C130.191 15.8926 130.25 16.0645 130.367 16.2051C130.488 16.3418 130.668 16.4746 130.906 16.6035C131.148 16.7324 131.449 16.8828 131.809 17.0547C132.246 17.2617 132.619 17.4785 132.928 17.7051C133.24 17.9277 133.48 18.1914 133.648 18.4961C133.816 18.7969 133.9 19.1719 133.9 19.6211ZM138.072 20.6934C138.268 20.6934 138.457 20.6738 138.641 20.6348C138.828 20.5957 139.014 20.5469 139.197 20.4883V21.8184C139.006 21.9043 138.768 21.9746 138.482 22.0293C138.201 22.0879 137.893 22.1172 137.557 22.1172C137.166 22.1172 136.814 22.0547 136.502 21.9297C136.193 21.8008 135.949 21.5801 135.77 21.2676C135.594 20.9512 135.506 20.5117 135.506 19.9492V16.791H134.65V16.0352L135.635 15.4375L136.15 14.0547H137.293V15.4492H139.127V16.791H137.293V19.9492C137.293 20.1992 137.363 20.3867 137.504 20.5117C137.648 20.6328 137.838 20.6934 138.072 20.6934ZM143.229 15.3262C143.834 15.3262 144.355 15.4434 144.793 15.6777C145.23 15.9082 145.568 16.2441 145.807 16.6855C146.045 17.127 146.164 17.666 146.164 18.3027V19.1699H141.939C141.959 19.6738 142.109 20.0703 142.391 20.3594C142.676 20.6445 143.07 20.7871 143.574 20.7871C143.992 20.7871 144.375 20.7441 144.723 20.6582C145.07 20.5723 145.428 20.4434 145.795 20.2715V21.6543C145.471 21.8145 145.131 21.9316 144.775 22.0059C144.424 22.0801 143.996 22.1172 143.492 22.1172C142.836 22.1172 142.254 21.9961 141.746 21.7539C141.242 21.5117 140.846 21.1426 140.557 20.6465C140.271 20.1504 140.129 19.5254 140.129 18.7715C140.129 18.0059 140.258 17.3691 140.516 16.8613C140.777 16.3496 141.141 15.9668 141.605 15.7129C142.07 15.4551 142.611 15.3262 143.229 15.3262ZM143.24 16.5977C142.893 16.5977 142.604 16.709 142.373 16.9316C142.146 17.1543 142.016 17.5039 141.98 17.9805H144.488C144.484 17.7148 144.436 17.4785 144.342 17.2715C144.252 17.0645 144.115 16.9004 143.932 16.7793C143.752 16.6582 143.521 16.5977 143.24 16.5977ZM151.262 15.3262C152 15.3262 152.596 15.6133 153.049 16.1875C153.506 16.7617 153.734 17.6035 153.734 18.7129C153.734 19.4551 153.627 20.0801 153.412 20.5879C153.197 21.0918 152.9 21.4727 152.521 21.7305C152.143 21.9883 151.707 22.1172 151.215 22.1172C150.898 22.1172 150.627 22.0781 150.4 22C150.174 21.918 149.98 21.8145 149.82 21.6895C149.66 21.5605 149.521 21.4238 149.404 21.2793H149.311C149.342 21.4355 149.365 21.5957 149.381 21.7598C149.396 21.9238 149.404 22.084 149.404 22.2402V24.8828H147.617V15.4492H149.07L149.322 16.2988H149.404C149.521 16.123 149.664 15.9609 149.832 15.8125C150 15.6641 150.201 15.5469 150.436 15.4609C150.674 15.3711 150.949 15.3262 151.262 15.3262ZM150.688 16.7559C150.375 16.7559 150.127 16.8203 149.943 16.9492C149.76 17.0781 149.625 17.2715 149.539 17.5293C149.457 17.7871 149.412 18.1133 149.404 18.5078V18.7012C149.404 19.123 149.443 19.4805 149.521 19.7734C149.604 20.0664 149.738 20.2891 149.926 20.4414C150.117 20.5938 150.379 20.6699 150.711 20.6699C150.984 20.6699 151.209 20.5938 151.385 20.4414C151.561 20.2891 151.691 20.0664 151.777 19.7734C151.867 19.4766 151.912 19.1152 151.912 18.6895C151.912 18.0488 151.812 17.5664 151.613 17.2422C151.414 16.918 151.105 16.7559 150.688 16.7559Z" fill="white"/>
<defs>
<filter id="filter0_d_2_8" x="0" y="26" width="234" height="154" filterUnits="userSpaceOnUse" color-interpolation-filters="sRGB">
<feFlood flood-opacity="0" result="BackgroundImageFix"/>
<feColorMatrix in="SourceAlpha" type="matrix" values="0 0 0 0 0 0 0 0 0 0 0 0 0 0 0 0 0 0 127 0" result="hardAlpha"/>
<feOffset/>
<feGaussianBlur stdDeviation="1"/>
<feComposite in2="hardAlpha" operator="out"/>
<feColorMatrix type="matrix" values="0 0 0 0 0 0 0 0 0 0 0 0 0 0 0 0 0 0 0.25 0"/>
<feBlend mode="normal" in2="BackgroundImageFix" result="effect1_dropShadow_2_8"/>
<feBlend mode="normal" in="SourceGraphic" in2="effect1_dropShadow_2_8" result="shape"/>
</filter>
</defs>
</svg>
