<svg width="234" height="154" viewBox="0 0 234 154" fill="none" xmlns="http://www.w3.org/2000/svg">
<g filter="url(#filter0_d_2_8)">
<rect x="2" y="2" width="230" height="150" fill="white"/>
</g>
<line x1="2" y1="107.5" x2="232" y2="107.5" stroke="black" stroke-opacity="0.05"/>
<line x1="2" y1="36.5" x2="232" y2="36.5" stroke="black" stroke-opacity="0.05"/>
<path d="M40.3828 24H38.5664V16.9453H36.2402V15.4336H42.709V16.9453H40.3828V24ZM46.5879 17.3262C47.1934 17.3262 47.7148 17.4434 48.1523 17.6777C48.5898 17.9082 48.9277 18.2441 49.166 18.6855C49.4043 19.127 49.5234 19.666 49.5234 20.3027V21.1699H45.2988C45.3184 21.6738 45.4688 22.0703 45.75 22.3594C46.0352 22.6445 46.4297 22.7871 46.9336 22.7871C47.3516 22.7871 47.7344 22.7441 48.082 22.6582C48.4297 22.5723 48.7871 22.4434 49.1543 22.2715V23.6543C48.8301 23.8145 48.4902 23.9316 48.1348 24.0059C47.7832 24.0801 47.3555 24.1172 46.8516 24.1172C46.1953 24.1172 45.6133 23.9961 45.1055 23.7539C44.6016 23.5117 44.2051 23.1426 43.916 22.6465C43.6309 22.1504 43.4883 21.5254 43.4883 20.7715C43.4883 20.0059 43.6172 19.3691 43.875 18.8613C44.1367 18.3496 44.5 17.9668 44.9648 17.7129C45.4297 17.4551 45.9707 17.3262 46.5879 17.3262ZM46.5996 18.5977C46.252 18.5977 45.9629 18.709 45.7324 18.9316C45.5059 19.1543 45.375 19.5039 45.3398 19.9805H47.8477C47.8438 19.7148 47.7949 19.4785 47.7012 19.2715C47.6113 19.0645 47.4746 18.9004 47.291 18.7793C47.1113 18.6582 46.8809 18.5977 46.5996 18.5977ZM52.3184 20.6543L50.209 17.4492H52.2363L53.5078 19.5352L54.791 17.4492H56.8184L54.6855 20.6543L56.918 24H54.8848L53.5078 21.7559L52.125 24H50.0977L52.3184 20.6543ZM60.6738 22.6934C60.8691 22.6934 61.0586 22.6738 61.2422 22.6348C61.4297 22.5957 61.6152 22.5469 61.7988 22.4883V23.8184C61.6074 23.9043 61.3691 23.9746 61.084 24.0293C60.8027 24.0879 60.4941 24.1172 60.1582 24.1172C59.7676 24.1172 59.416 24.0547 59.1035 23.9297C58.7949 23.8008 58.5508 23.5801 58.3711 23.2676C58.1953 22.9512 58.1074 22.5117 58.1074 21.9492V18.791H57.252V18.0352L58.2363 17.4375L58.752 16.0547H59.8945V17.4492H61.7285V18.791H59.8945V21.9492C59.8945 22.1992 59.9648 22.3867 60.1055 22.5117C60.25 22.6328 60.4395 22.6934 60.6738 22.6934ZM70.0137 24L67.9512 17.2793H67.8984C67.9062 17.4395 67.918 17.6816 67.9336 18.0059C67.9531 18.3262 67.9707 18.668 67.9863 19.0312C68.002 19.3945 68.0098 19.7227 68.0098 20.0156V24H66.3867V15.4336H68.8594L70.8867 21.9844H70.9219L73.0723 15.4336H75.5449V24H73.8516V19.9453C73.8516 19.6758 73.8555 19.3652 73.8633 19.0137C73.875 18.6621 73.8887 18.3281 73.9043 18.0117C73.9199 17.6914 73.9316 17.4512 73.9395 17.291H73.8867L71.6777 24H70.0137ZM80.2676 17.3262C80.873 17.3262 81.3945 17.4434 81.832 17.6777C82.2695 17.9082 82.6074 18.2441 82.8457 18.6855C83.084 19.127 83.2031 19.666 83.2031 20.3027V21.1699H78.9785C78.998 21.6738 79.1484 22.0703 79.4297 22.3594C79.7148 22.6445 80.1094 22.7871 80.6133 22.7871C81.0312 22.7871 81.4141 22.7441 81.7617 22.6582C82.1094 22.5723 82.4668 22.4434 82.834 22.2715V23.6543C82.5098 23.8145 82.1699 23.9316 81.8145 24.0059C81.4629 24.0801 81.0352 24.1172 80.5312 24.1172C79.875 24.1172 79.293 23.9961 78.7852 23.7539C78.2812 23.5117 77.8848 23.1426 77.5957 22.6465C77.3105 22.1504 77.168 21.5254 77.168 20.7715C77.168 20.0059 77.2969 19.3691 77.5547 18.8613C77.8164 18.3496 78.1797 17.9668 78.6445 17.7129C79.1094 17.4551 79.6504 17.3262 80.2676 17.3262ZM80.2793 18.5977C79.9316 18.5977 79.6426 18.709 79.4121 18.9316C79.1855 19.1543 79.0547 19.5039 79.0195 19.9805H81.5273C81.5234 19.7148 81.4746 19.4785 81.3809 19.2715C81.291 19.0645 81.1543 18.9004 80.9707 18.7793C80.791 18.6582 80.5605 18.5977 80.2793 18.5977ZM89.2266 22.0547C89.2266 22.5 89.1211 22.877 88.9102 23.1855C88.7031 23.4902 88.3926 23.7227 87.9785 23.8828C87.5645 24.0391 87.0488 24.1172 86.4316 24.1172C85.9746 24.1172 85.582 24.0879 85.2539 24.0293C84.9297 23.9707 84.6016 23.873 84.2695 23.7363V22.2598C84.625 22.4199 85.0059 22.5527 85.4121 22.6582C85.8223 22.7598 86.1816 22.8105 86.4902 22.8105C86.8379 22.8105 87.0859 22.7598 87.2344 22.6582C87.3867 22.5527 87.4629 22.416 87.4629 22.248C87.4629 22.1387 87.4316 22.041 87.3691 21.9551C87.3105 21.8652 87.1816 21.7656 86.9824 21.6562C86.7832 21.543 86.4707 21.3965 86.0449 21.2168C85.6348 21.0449 85.2969 20.8711 85.0312 20.6953C84.7695 20.5195 84.5742 20.3125 84.4453 20.0742C84.3203 19.832 84.2578 19.5254 84.2578 19.1543C84.2578 18.5488 84.4922 18.0938 84.9609 17.7891C85.4336 17.4805 86.0645 17.3262 86.8535 17.3262C87.2598 17.3262 87.6465 17.3672 88.0137 17.4492C88.3848 17.5312 88.7656 17.6621 89.1562 17.8418L88.6172 19.1309C88.293 18.9902 87.9863 18.875 87.6973 18.7852C87.4121 18.6953 87.1211 18.6504 86.8242 18.6504C86.5625 18.6504 86.3652 18.6855 86.2324 18.7559C86.0996 18.8262 86.0332 18.9336 86.0332 19.0781C86.0332 19.1836 86.0664 19.2773 86.1328 19.3594C86.2031 19.4414 86.3359 19.5332 86.5312 19.6348C86.7305 19.7324 87.0215 19.8594 87.4043 20.0156C87.7754 20.168 88.0977 20.3281 88.3711 20.4961C88.6445 20.6602 88.8555 20.8652 89.0039 21.1113C89.1523 21.3535 89.2266 21.668 89.2266 22.0547ZM95.1914 22.0547C95.1914 22.5 95.0859 22.877 94.875 23.1855C94.668 23.4902 94.3574 23.7227 93.9434 23.8828C93.5293 24.0391 93.0137 24.1172 92.3965 24.1172C91.9395 24.1172 91.5469 24.0879 91.2188 24.0293C90.8945 23.9707 90.5664 23.873 90.2344 23.7363V22.2598C90.5898 22.4199 90.9707 22.5527 91.377 22.6582C91.7871 22.7598 92.1465 22.8105 92.4551 22.8105C92.8027 22.8105 93.0508 22.7598 93.1992 22.6582C93.3516 22.5527 93.4277 22.416 93.4277 22.248C93.4277 22.1387 93.3965 22.041 93.334 21.9551C93.2754 21.8652 93.1465 21.7656 92.9473 21.6562C92.748 21.543 92.4355 21.3965 92.0098 21.2168C91.5996 21.0449 91.2617 20.8711 90.9961 20.6953C90.7344 20.5195 90.5391 20.3125 90.4102 20.0742C90.2852 19.832 90.2227 19.5254 90.2227 19.1543C90.2227 18.5488 90.457 18.0938 90.9258 17.7891C91.3984 17.4805 92.0293 17.3262 92.8184 17.3262C93.2246 17.3262 93.6113 17.3672 93.9785 17.4492C94.3496 17.5312 94.7305 17.6621 95.1211 17.8418L94.582 19.1309C94.2578 18.9902 93.9512 18.875 93.6621 18.7852C93.377 18.6953 93.0859 18.6504 92.7891 18.6504C92.5273 18.6504 92.3301 18.6855 92.1973 18.7559C92.0645 18.8262 91.998 18.9336 91.998 19.0781C91.998 19.1836 92.0312 19.2773 92.0977 19.3594C92.168 19.4414 92.3008 19.5332 92.4961 19.6348C92.6953 19.7324 92.9863 19.8594 93.3691 20.0156C93.7402 20.168 94.0625 20.3281 94.3359 20.4961C94.6094 20.6602 94.8203 20.8652 94.9688 21.1113C95.1172 21.3535 95.1914 21.668 95.1914 22.0547ZM99.2695 17.3145C100.148 17.3145 100.822 17.5059 101.291 17.8887C101.76 18.2715 101.994 18.8535 101.994 19.6348V24H100.746L100.4 23.1094H100.354C100.166 23.3438 99.9746 23.5352 99.7793 23.6836C99.584 23.832 99.3594 23.9414 99.1055 24.0117C98.8516 24.082 98.543 24.1172 98.1797 24.1172C97.793 24.1172 97.4453 24.043 97.1367 23.8945C96.832 23.7461 96.5918 23.5195 96.416 23.2148C96.2402 22.9062 96.1523 22.5156 96.1523 22.043C96.1523 21.3477 96.3965 20.8359 96.8848 20.5078C97.373 20.1758 98.1055 19.9922 99.082 19.957L100.219 19.9219V19.6348C100.219 19.291 100.129 19.0391 99.9492 18.8789C99.7695 18.7188 99.5195 18.6387 99.1992 18.6387C98.8828 18.6387 98.5723 18.6836 98.2676 18.7734C97.9629 18.8633 97.6582 18.9766 97.3535 19.1133L96.7617 17.9062C97.1094 17.7227 97.498 17.5781 97.9277 17.4727C98.3613 17.3672 98.8086 17.3145 99.2695 17.3145ZM100.219 20.9648L99.5273 20.9883C98.9492 21.0039 98.5469 21.1074 98.3203 21.2988C98.0977 21.4902 97.9863 21.7422 97.9863 22.0547C97.9863 22.3281 98.0664 22.5234 98.2266 22.6406C98.3867 22.7539 98.5957 22.8105 98.8535 22.8105C99.2363 22.8105 99.5586 22.6973 99.8203 22.4707C100.086 22.2441 100.219 21.9219 100.219 21.5039V20.9648ZM105.756 26.8828C104.842 26.8828 104.143 26.7227 103.658 26.4023C103.178 26.0859 102.938 25.6406 102.938 25.0664C102.938 24.6719 103.061 24.3418 103.307 24.0762C103.553 23.8105 103.914 23.6211 104.391 23.5078C104.207 23.4297 104.047 23.3027 103.91 23.127C103.773 22.9473 103.705 22.7578 103.705 22.5586C103.705 22.3086 103.777 22.1016 103.922 21.9375C104.066 21.7695 104.275 21.6055 104.549 21.4453C104.205 21.2969 103.932 21.0586 103.729 20.7305C103.529 20.4023 103.43 20.0156 103.43 19.5703C103.43 19.0938 103.533 18.6895 103.74 18.3574C103.951 18.0215 104.256 17.7656 104.654 17.5898C105.057 17.4141 105.545 17.3262 106.119 17.3262C106.24 17.3262 106.381 17.334 106.541 17.3496C106.701 17.3652 106.848 17.3828 106.98 17.4023C107.117 17.4219 107.209 17.4375 107.256 17.4492H109.541V18.3574L108.516 18.6211C108.609 18.7656 108.68 18.9199 108.727 19.084C108.773 19.248 108.797 19.4219 108.797 19.6055C108.797 20.3086 108.551 20.8574 108.059 21.252C107.57 21.6426 106.891 21.8379 106.02 21.8379C105.812 21.8262 105.617 21.8105 105.434 21.791C105.344 21.8613 105.275 21.9355 105.229 22.0137C105.182 22.0918 105.158 22.1738 105.158 22.2598C105.158 22.3457 105.193 22.418 105.264 22.4766C105.338 22.5312 105.447 22.5742 105.592 22.6055C105.74 22.6328 105.924 22.6465 106.143 22.6465H107.256C107.975 22.6465 108.521 22.8008 108.896 23.1094C109.275 23.418 109.465 23.8711 109.465 24.4688C109.465 25.2344 109.145 25.8281 108.504 26.25C107.867 26.6719 106.951 26.8828 105.756 26.8828ZM105.832 25.7168C106.258 25.7168 106.623 25.6758 106.928 25.5938C107.236 25.5156 107.473 25.4023 107.637 25.2539C107.801 25.1094 107.883 24.9355 107.883 24.7324C107.883 24.5684 107.834 24.4375 107.736 24.3398C107.643 24.2461 107.498 24.1797 107.303 24.1406C107.111 24.1016 106.865 24.082 106.564 24.082H105.639C105.42 24.082 105.223 24.1172 105.047 24.1875C104.875 24.2578 104.738 24.3555 104.637 24.4805C104.535 24.6094 104.484 24.7578 104.484 24.9258C104.484 25.1719 104.602 25.3652 104.836 25.5059C105.074 25.6465 105.406 25.7168 105.832 25.7168ZM106.119 20.748C106.455 20.748 106.701 20.6445 106.857 20.4375C107.014 20.2305 107.092 19.9492 107.092 19.5938C107.092 19.1992 107.01 18.9043 106.846 18.709C106.686 18.5098 106.443 18.4102 106.119 18.4102C105.791 18.4102 105.545 18.5098 105.381 18.709C105.217 18.9043 105.135 19.1992 105.135 19.5938C105.135 19.9492 105.215 20.2305 105.375 20.4375C105.539 20.6445 105.787 20.748 106.119 20.748ZM113.326 17.3262C113.932 17.3262 114.453 17.4434 114.891 17.6777C115.328 17.9082 115.666 18.2441 115.904 18.6855C116.143 19.127 116.262 19.666 116.262 20.3027V21.1699H112.037C112.057 21.6738 112.207 22.0703 112.488 22.3594C112.773 22.6445 113.168 22.7871 113.672 22.7871C114.09 22.7871 114.473 22.7441 114.82 22.6582C115.168 22.5723 115.525 22.4434 115.893 22.2715V23.6543C115.568 23.8145 115.229 23.9316 114.873 24.0059C114.521 24.0801 114.094 24.1172 113.59 24.1172C112.934 24.1172 112.352 23.9961 111.844 23.7539C111.34 23.5117 110.943 23.1426 110.654 22.6465C110.369 22.1504 110.227 21.5254 110.227 20.7715C110.227 20.0059 110.355 19.3691 110.613 18.8613C110.875 18.3496 111.238 17.9668 111.703 17.7129C112.168 17.4551 112.709 17.3262 113.326 17.3262ZM113.338 18.5977C112.99 18.5977 112.701 18.709 112.471 18.9316C112.244 19.1543 112.113 19.5039 112.078 19.9805H114.586C114.582 19.7148 114.533 19.4785 114.439 19.2715C114.35 19.0645 114.213 18.9004 114.029 18.7793C113.85 18.6582 113.619 18.5977 113.338 18.5977Z" fill="#414141"/>
<path d="M185.246 132H184.48L181.367 127.203H181.336C181.344 127.331 181.353 127.477 181.363 127.641C181.374 127.802 181.382 127.975 181.387 128.16C181.395 128.342 181.398 128.529 181.398 128.719V132H180.781V126.289H181.543L184.645 131.07H184.672C184.667 130.979 184.66 130.85 184.652 130.684C184.645 130.514 184.637 130.333 184.629 130.141C184.624 129.945 184.621 129.764 184.621 129.598V126.289H185.246V132ZM188.355 127.641C188.72 127.641 189.033 127.721 189.293 127.883C189.553 128.044 189.753 128.271 189.891 128.562C190.029 128.852 190.098 129.19 190.098 129.578V129.98H187.141C187.148 130.483 187.273 130.866 187.516 131.129C187.758 131.392 188.099 131.523 188.539 131.523C188.81 131.523 189.049 131.499 189.258 131.449C189.466 131.4 189.682 131.327 189.906 131.23V131.801C189.69 131.897 189.475 131.967 189.262 132.012C189.051 132.056 188.801 132.078 188.512 132.078C188.1 132.078 187.741 131.995 187.434 131.828C187.129 131.659 186.892 131.411 186.723 131.086C186.553 130.76 186.469 130.362 186.469 129.891C186.469 129.43 186.546 129.031 186.699 128.695C186.855 128.357 187.074 128.096 187.355 127.914C187.639 127.732 187.973 127.641 188.355 127.641ZM188.348 128.172C188.001 128.172 187.725 128.285 187.52 128.512C187.314 128.738 187.191 129.055 187.152 129.461H189.418C189.415 129.206 189.375 128.982 189.297 128.789C189.221 128.594 189.105 128.443 188.949 128.336C188.793 128.227 188.592 128.172 188.348 128.172ZM192.219 129.809L190.738 127.719H191.48L192.609 129.367L193.734 127.719H194.469L192.988 129.809L194.551 132H193.809L192.609 130.254L191.402 132H190.668L192.219 129.809ZM196.77 131.547C196.876 131.547 196.986 131.538 197.098 131.52C197.21 131.501 197.301 131.479 197.371 131.453V131.957C197.296 131.991 197.19 132.02 197.055 132.043C196.922 132.066 196.792 132.078 196.664 132.078C196.438 132.078 196.232 132.039 196.047 131.961C195.862 131.88 195.714 131.745 195.602 131.555C195.492 131.365 195.438 131.102 195.438 130.766V128.227H194.828V127.91L195.441 127.656L195.699 126.727H196.09V127.719H197.344V128.227H196.09V130.746C196.09 131.014 196.151 131.215 196.273 131.348C196.398 131.48 196.564 131.547 196.77 131.547ZM203.637 130.48C203.637 130.819 203.552 131.108 203.383 131.348C203.216 131.585 202.982 131.766 202.68 131.891C202.378 132.016 202.022 132.078 201.613 132.078C201.397 132.078 201.193 132.068 201 132.047C200.807 132.026 200.63 131.996 200.469 131.957C200.307 131.918 200.165 131.87 200.043 131.812V131.176C200.238 131.257 200.477 131.332 200.758 131.402C201.039 131.47 201.333 131.504 201.641 131.504C201.927 131.504 202.169 131.466 202.367 131.391C202.565 131.312 202.715 131.202 202.816 131.059C202.921 130.913 202.973 130.738 202.973 130.535C202.973 130.34 202.93 130.177 202.844 130.047C202.758 129.914 202.615 129.794 202.414 129.688C202.216 129.578 201.945 129.462 201.602 129.34C201.359 129.254 201.146 129.16 200.961 129.059C200.776 128.954 200.621 128.837 200.496 128.707C200.371 128.577 200.276 128.426 200.211 128.254C200.148 128.082 200.117 127.885 200.117 127.664C200.117 127.359 200.194 127.099 200.348 126.883C200.504 126.664 200.719 126.497 200.992 126.383C201.268 126.266 201.585 126.207 201.941 126.207C202.246 126.207 202.527 126.236 202.785 126.293C203.046 126.35 203.284 126.427 203.5 126.523L203.293 127.094C203.087 127.008 202.868 126.936 202.637 126.879C202.408 126.822 202.171 126.793 201.926 126.793C201.681 126.793 201.474 126.829 201.305 126.902C201.138 126.973 201.01 127.073 200.922 127.203C200.833 127.333 200.789 127.488 200.789 127.668C200.789 127.868 200.831 128.035 200.914 128.168C201 128.301 201.135 128.419 201.32 128.523C201.508 128.625 201.755 128.732 202.062 128.844C202.398 128.966 202.684 129.096 202.918 129.234C203.152 129.37 203.331 129.536 203.453 129.734C203.576 129.93 203.637 130.178 203.637 130.48ZM206.09 131.547C206.197 131.547 206.306 131.538 206.418 131.52C206.53 131.501 206.621 131.479 206.691 131.453V131.957C206.616 131.991 206.51 132.02 206.375 132.043C206.242 132.066 206.112 132.078 205.984 132.078C205.758 132.078 205.552 132.039 205.367 131.961C205.182 131.88 205.034 131.745 204.922 131.555C204.812 131.365 204.758 131.102 204.758 130.766V128.227H204.148V127.91L204.762 127.656L205.02 126.727H205.41V127.719H206.664V128.227H205.41V130.746C205.41 131.014 205.471 131.215 205.594 131.348C205.719 131.48 205.884 131.547 206.09 131.547ZM209.207 127.641C209.572 127.641 209.884 127.721 210.145 127.883C210.405 128.044 210.604 128.271 210.742 128.562C210.88 128.852 210.949 129.19 210.949 129.578V129.98H207.992C208 130.483 208.125 130.866 208.367 131.129C208.609 131.392 208.951 131.523 209.391 131.523C209.661 131.523 209.901 131.499 210.109 131.449C210.318 131.4 210.534 131.327 210.758 131.23V131.801C210.542 131.897 210.327 131.967 210.113 132.012C209.902 132.056 209.652 132.078 209.363 132.078C208.952 132.078 208.592 131.995 208.285 131.828C207.98 131.659 207.743 131.411 207.574 131.086C207.405 130.76 207.32 130.362 207.32 129.891C207.32 129.43 207.397 129.031 207.551 128.695C207.707 128.357 207.926 128.096 208.207 127.914C208.491 127.732 208.824 127.641 209.207 127.641ZM209.199 128.172C208.853 128.172 208.577 128.285 208.371 128.512C208.165 128.738 208.043 129.055 208.004 129.461H210.27C210.267 129.206 210.227 128.982 210.148 128.789C210.073 128.594 209.957 128.443 209.801 128.336C209.645 128.227 209.444 128.172 209.199 128.172ZM214.062 127.641C214.596 127.641 215.022 127.824 215.34 128.191C215.658 128.559 215.816 129.111 215.816 129.848C215.816 130.335 215.743 130.743 215.598 131.074C215.452 131.405 215.246 131.655 214.98 131.824C214.717 131.993 214.406 132.078 214.047 132.078C213.82 132.078 213.621 132.048 213.449 131.988C213.277 131.928 213.13 131.848 213.008 131.746C212.885 131.645 212.784 131.534 212.703 131.414H212.656C212.664 131.516 212.673 131.638 212.684 131.781C212.697 131.924 212.703 132.049 212.703 132.156V133.914H212.051V127.719H212.586L212.672 128.352H212.703C212.786 128.221 212.888 128.103 213.008 127.996C213.128 127.887 213.273 127.801 213.445 127.738C213.62 127.673 213.826 127.641 214.062 127.641ZM213.949 128.188C213.652 128.188 213.413 128.245 213.23 128.359C213.051 128.474 212.919 128.646 212.836 128.875C212.753 129.102 212.708 129.387 212.703 129.73V129.855C212.703 130.217 212.742 130.523 212.82 130.773C212.901 131.023 213.033 131.214 213.215 131.344C213.4 131.474 213.647 131.539 213.957 131.539C214.223 131.539 214.444 131.467 214.621 131.324C214.798 131.181 214.93 130.982 215.016 130.727C215.104 130.469 215.148 130.173 215.148 129.84C215.148 129.335 215.049 128.934 214.852 128.637C214.656 128.337 214.355 128.188 213.949 128.188Z" fill="#919191"/>
<defs>
<filter id="filter0_d_2_8" x="0" y="0" width="234" height="154" filterUnits="userSpaceOnUse" color-interpolation-filters="sRGB">
<feFlood flood-opacity="0" result="BackgroundImageFix"/>
<feColorMatrix in="SourceAlpha" type="matrix" values="0 0 0 0 0 0 0 0 0 0 0 0 0 0 0 0 0 0 127 0" result="hardAlpha"/>
<feOffset/>
<feGaussianBlur stdDeviation="1"/>
<feComposite in2="hardAlpha" operator="out"/>
<feColorMatrix type="matrix" values="0 0 0 0 0 0 0 0 0 0 0 0 0 0 0 0 0 0 0.25 0"/>
<feBlend mode="normal" in2="BackgroundImageFix" result="effect1_dropShadow_2_8"/>
<feBlend mode="normal" in="SourceGraphic" in2="effect1_dropShadow_2_8" result="shape"/>
</filter>
</defs>
</svg>
