<svg width="100" height="37" viewBox="0 0 100 37" fill="none" xmlns="http://www.w3.org/2000/svg">
<rect x="0.5" y="0.5" width="99" height="36" rx="3.5" fill="white" stroke="#D9D9D9"/>
<line x1="50.5" y1="7" x2="50.5" y2="30" stroke="#D9D9D9"/>
<rect width="16" height="16" transform="translate(68 10)" fill="white"/>
<path d="M73.5 15.5C73.6326 15.5 73.7598 15.5527 73.8536 15.6464C73.9473 15.7402 74 15.8674 74 16V22C74 22.1326 73.9473 22.2598 73.8536 22.3536C73.7598 22.4473 73.6326 22.5 73.5 22.5C73.3674 22.5 73.2402 22.4473 73.1464 22.3536C73.0527 22.2598 73 22.1326 73 22V16C73 15.8674 73.0527 15.7402 73.1464 15.6464C73.2402 15.5527 73.3674 15.5 73.5 15.5ZM76 15.5C76.1326 15.5 76.2598 15.5527 76.3536 15.6464C76.4473 15.7402 76.5 15.8674 76.5 16V22C76.5 22.1326 76.4473 22.2598 76.3536 22.3536C76.2598 22.4473 76.1326 22.5 76 22.5C75.8674 22.5 75.7402 22.4473 75.6464 22.3536C75.5527 22.2598 75.5 22.1326 75.5 22V16C75.5 15.8674 75.5527 15.7402 75.6464 15.6464C75.7402 15.5527 75.8674 15.5 76 15.5ZM79 16C79 15.8674 78.9473 15.7402 78.8536 15.6464C78.7598 15.5527 78.6326 15.5 78.5 15.5C78.3674 15.5 78.2402 15.5527 78.1464 15.6464C78.0527 15.7402 78 15.8674 78 16V22C78 22.1326 78.0527 22.2598 78.1464 22.3536C78.2402 22.4473 78.3674 22.5 78.5 22.5C78.6326 22.5 78.7598 22.4473 78.8536 22.3536C78.9473 22.2598 79 22.1326 79 22V16Z" fill="#F24E1E"/>
<path fill-rule="evenodd" clip-rule="evenodd" d="M82.5 13C82.5 13.2652 82.3946 13.5196 82.2071 13.7071C82.0196 13.8946 81.7652 14 81.5 14H81V23C81 23.5304 80.7893 24.0391 80.4142 24.4142C80.0391 24.7893 79.5304 25 79 25H73C72.4696 25 71.9609 24.7893 71.5858 24.4142C71.2107 24.0391 71 23.5304 71 23V14H70.5C70.2348 14 69.9804 13.8946 69.7929 13.7071C69.6054 13.5196 69.5 13.2652 69.5 13V12C69.5 11.7348 69.6054 11.4804 69.7929 11.2929C69.9804 11.1054 70.2348 11 70.5 11H74C74 10.7348 74.1054 10.4804 74.2929 10.2929C74.4804 10.1054 74.7348 10 75 10H77C77.2652 10 77.5196 10.1054 77.7071 10.2929C77.8946 10.4804 78 10.7348 78 11H81.5C81.7652 11 82.0196 11.1054 82.2071 11.2929C82.3946 11.4804 82.5 11.7348 82.5 12V13ZM72.118 14L72 14.059V23C72 23.2652 72.1054 23.5196 72.2929 23.7071C72.4804 23.8946 72.7348 24 73 24H79C79.2652 24 79.5196 23.8946 79.7071 23.7071C79.8946 23.5196 80 23.2652 80 23V14.059L79.882 14H72.118ZM70.5 13V12H81.5V13H70.5Z" fill="#F24E1E"/>
<rect width="16" height="16" transform="translate(16 10)" fill="white"/>
<path d="M28.6667 22.6667H21.3333C20.9667 22.6667 20.6527 22.536 20.3913 22.2747C20.13 22.0133 19.9996 21.6996 20 21.3333V12C20 11.6333 20.1307 11.3193 20.392 11.058C20.6533 10.7967 20.9671 10.6662 21.3333 10.6667H26L30 14.6667V21.3333C30 21.7 29.8693 22.014 29.608 22.2753C29.3467 22.5367 29.0329 22.6671 28.6667 22.6667ZM25.3333 15.3333V12H21.3333V21.3333H28.6667V15.3333H25.3333ZM18.6667 25.3333C18.3 25.3333 17.986 25.2027 17.7247 24.9413C17.4633 24.68 17.3329 24.3662 17.3333 24V14.6667H18.6667V24H26V25.3333H18.6667Z" fill="#0037C5"/>
</svg>
